#!OML:ASF F:\VICON\USERDATA\INSTALL\rory3\rory3.ASF
:FULLY-SPECIFIED
:DEGREES
2716
root -0.33266 16.6105 -0.513839 14.6226 6.48738 -1.74504
lowerback 9.24522 1.22131 -2.2751
upperback -4.68634 1.12923 -2.19997
thorax -10.2291 0.610943 -1.28422
lowerneck -11.0962 -3.53164 -16.9477
upperneck 6.69617 -4.31456 21.8821
head 4.74191 -1.43177 9.65738
rclavicle 5.02925e-014 -1.03368e-014
rhumerus -8.59456 8.8985 -90.5976
rradius 107.685
rwrist 29.206
rhand 23.6387 1.72615
rfingers 7.12502
rthumb 47.9084 -20.5293
lclavicle 5.02925e-014 -1.03368e-014
lhumerus 1.89745 -26.0346 91.9388
lradius 94.1831
lwrist -15.1672
lhand 20.9062 36.6154
lfingers 7.12502
lthumb 45.3783 59.9643
rfemur -31.8468 0.384378 21.8074
rtibia 42.394
rfoot -24.8557 -9.73928
rtoes -23.0061
lfemur -35.4702 -7.23704 -11.1529
ltibia 44.013
lfoot -22.9358 -3.00783
ltoes -17.7025
2717
root -0.326989 16.6176 -0.519634 14.6813 6.43575 -1.70905
lowerback 9.29502 1.2073 -2.24574
upperback -4.68988 1.12341 -2.08163
thorax -10.264 0.610868 -1.17401
lowerneck -10.8954 -3.84164 -17.1431
upperneck 6.67483 -4.72288 21.6697
head 4.78293 -1.65982 9.57844
rclavicle -3.77691e-014 1.03368e-014
rhumerus -8.68314 8.76015 -90.5838
rradius 107.634
rwrist 29.2057
rhand 23.5041 1.77613
rfingers 7.12502
rthumb 47.7843 -20.5367
lclavicle -3.77691e-014 1.03368e-014
lhumerus 1.74683 -26.0455 92.0834
lradius 93.8494
lwrist -15.2065
lhand 20.5765 36.632
lfingers 7.12502
lthumb 45.0718 60.1033
rfemur -31.8805 0.359783 21.7348
rtibia 42.2523
rfoot -24.7871 -9.64285
rtoes -22.9999
lfemur -35.4586 -7.1834 -11.2219
ltibia 43.8279
lfoot -22.8144 -3.04742
ltoes -17.5671
2718
root -0.319602 16.6296 -0.523575 14.7269 6.42787 -1.64268
lowerback 9.31235 1.20824 -2.27913
upperback -4.61969 1.13861 -1.89611
thorax -10.2005 0.627575 -0.957191
lowerneck -10.753 -4.24997 -17.464
upperneck 6.56623 -5.22106 21.3804
head 4.82776 -1.93693 9.48325
rclavicle 5.36719e-015 -1.82882e-014
rhumerus -8.63018 8.56259 -90.4373
rradius 107.595
rwrist 29.1581
rhand 23.5248 1.79591
rfingers 7.12502
rthumb 47.8034 -20.5081
lclavicle 5.36719e-015 -1.82882e-014
lhumerus 1.70847 -26.0074 92.3315
lradius 93.558
lwrist -15.2877
lhand 20.3285 36.6603
lfingers 7.12502
lthumb 44.841 60.2222
rfemur -31.8046 0.306819 21.6365
rtibia 42.0008
rfoot -24.6689 -9.59399
rtoes -23.1464
lfemur -35.3742 -7.19188 -11.325
ltibia 43.5504
lfoot -22.6791 -2.98522
ltoes -17.6372
2719
root -0.310166 16.648 -0.526719 14.8589 6.40022 -1.63091
lowerback 9.23181 1.24562 -2.21442
upperback -4.5174 1.22309 -1.68154
thorax -10.042 0.671966 -0.77351
lowerneck -10.6164 -4.72293 -17.8559
upperneck 6.28407 -5.77403 21.0854
head 4.83594 -2.24397 9.38816
rclavicle 1.02374e-014 3.33958e-014
rhumerus -8.48682 8.25112 -90.1889
rradius 107.591
rwrist 29.1238
rhand 23.5924 1.79885
rfingers 7.12502
rthumb 47.8658 -20.4763
lclavicle 1.02374e-014 3.33958e-014
lhumerus 1.79807 -25.9745 92.6327
lradius 93.2809
lwrist -15.4243
lhand 20.3192 36.6668
lfingers 7.12502
lthumb 44.8323 60.2321
rfemur -31.784 0.320718 21.579
rtibia 41.6502
rfoot -24.4778 -9.56366
rtoes -23.2458
lfemur -35.3343 -7.18923 -11.3656
ltibia 43.1627
lfoot -22.4521 -2.78349
ltoes -18.2919
2720
root -0.301422 16.6714 -0.529366 15.1259 6.32319 -1.5417
lowerback 9.12012 1.23124 -2.12113
upperback -4.51947 1.22987 -1.57673
thorax -9.97755 0.673268 -0.711806
lowerneck -10.3081 -5.09899 -18.1082
upperneck 5.94872 -6.23968 20.8433
head 4.77802 -2.51031 9.29456
rclavicle -1.49089e-015 -2.46493e-014
rhumerus -8.46617 7.98552 -90.218
rradius 107.594
rwrist 29.2383
rhand 23.5778 1.77535
rfingers 7.12502
rthumb 47.8523 -20.5061
lclavicle -1.49089e-015 -2.46493e-014
lhumerus 1.67969 -25.8169 92.7914
lradius 93.0998
lwrist -15.6618
lhand 20.223 36.5815
lfingers 7.12502
lthumb 44.7428 60.1817
rfemur -31.8459 0.396364 21.4163
rtibia 41.1808
rfoot -24.2379 -9.49805
rtoes -23.3198
lfemur -35.353 -7.18126 -11.4676
ltibia 42.6634
lfoot -22.1014 -2.92266
ltoes -17.0419
2721
root -0.292503 16.7015 -0.531576 15.4076 6.25849 -1.33185
lowerback 9.06608 1.18398 -2.01945
upperback -4.51599 1.1811 -1.58422
thorax -9.93852 0.642762 -0.766769
lowerneck -10.1235 -5.52087 -18.2599
upperneck 5.75543 -6.78683 20.6147
head 4.79731 -2.80456 9.18126
rclavicle 4.17448e-015 3.18055e-015
rhumerus -8.37318 7.69895 -90.3711
rradius 107.617
rwrist 29.3808
rhand 23.4212 1.69308
rfingers 7.12502
rthumb 47.7079 -20.6549
lclavicle 4.17448e-015 3.18055e-015
lhumerus 1.59793 -25.6343 92.7574
lradius 93.0281
lwrist -15.9541
lhand 20.0914 36.3955
lfingers 7.12502
lthumb 44.6202 60.0431
rfemur -31.8364 0.473651 21.112
rtibia 40.5864
rfoot -23.9394 -9.41985
rtoes -23.1219
lfemur -35.3067 -7.21562 -11.7016
ltibia 42.0407
lfoot -21.6992 -3.02368
ltoes -15.8348
2722
root -0.280145 16.736 -0.531782 15.6545 6.22175 -1.27002
lowerback 9.09437 1.13528 -1.75824
upperback -4.50304 1.1557 -1.51977
thorax -9.9357 0.615752 -0.840347
lowerneck -10.0442 -6.02139 -18.4871
upperneck 5.66704 -7.42943 20.3817
head 4.88721 -3.14056 9.06909
rclavicle -9.74045e-015 0
rhumerus -8.23907 7.45741 -90.4613
rradius 107.671
rwrist 29.5087
rhand 23.3328 1.6312
rfingers 7.12502
rthumb 47.6262 -20.7542
lclavicle -9.74045e-015 0
lhumerus 1.60773 -25.4355 92.7095
lradius 92.9342
lwrist -16.177
lhand 19.8502 36.386
lfingers 7.12502
lthumb 44.3955 60.1198
rfemur -31.7165 0.591902 20.9568
rtibia 39.8682
rfoot -23.5403 -9.39231
rtoes -23.2583
lfemur -35.1893 -7.25247 -11.7844
ltibia 41.3199
lfoot -21.2805 -3.03568
ltoes -15.257
2723
root -0.26728 16.7765 -0.529309 16.0022 6.15469 -1.21964
lowerback 9.03145 1.07913 -1.51959
upperback -4.52391 1.12228 -1.42217
thorax -9.91753 0.587884 -0.862958
lowerneck -9.96762 -6.49599 -18.7953
upperneck 5.5798 -8.02973 20.2054
head 4.975 -3.45454 8.99347
rclavicle -5.46658e-015 5.32743e-014
rhumerus -8.09163 7.23843 -90.5807
rradius 107.705
rwrist 29.6861
rhand 23.2751 1.80283
rfingers 7.12502
rthumb 47.573 -20.6068
lclavicle -5.46658e-015 5.32743e-014
lhumerus 1.61286 -25.1614 92.7105
lradius 92.8062
lwrist -16.199
lhand 19.7191 36.3669
lfingers 7.12502
lthumb 44.2733 60.147
rfemur -31.6568 0.799681 20.7865
rtibia 39.0553
rfoot -23.1066 -9.39111
rtoes -23.7103
lfemur -35.1228 -7.27636 -11.8446
ltibia 40.4985
lfoot -20.7996 -2.86332
ltoes -15.3647
2724
root -0.255637 16.8203 -0.529249 16.3907 6.14021 -1.12285
lowerback 9.01721 1.00287 -1.3398
upperback -4.5582 1.05437 -1.30218
thorax -9.94518 0.547999 -0.824077
lowerneck -9.75861 -6.92626 -19.0186
upperneck 5.30978 -8.56836 19.9288
head 4.96353 -3.74807 8.87135
rclavicle 1.12313e-014 -7.95139e-016
rhumerus -7.89527 7.12891 -90.6401
rradius 107.759
rwrist 29.8104
rhand 23.1059 1.85101
rfingers 7.12502
rthumb 47.4167 -20.6294
lclavicle 1.12313e-014 -7.95139e-016
lhumerus 1.64667 -24.7711 92.7301
lradius 92.7833
lwrist -16.2934
lhand 19.7405 36.4425
lfingers 7.12502
lthumb 44.2932 60.2151
rfemur -31.6156 1.03641 20.5646
rtibia 38.176
rfoot -22.5786 -9.43563
rtoes -23.9633
lfemur -35.1004 -7.38176 -11.9218
ltibia 39.6244
lfoot -20.3172 -2.59238
ltoes -15.9572
2725
root -0.245039 16.8643 -0.531527 16.7971 6.12748 -0.941699
lowerback 9.10075 0.917424 -1.27523
upperback -4.58367 0.957432 -1.17515
thorax -10.0239 0.501784 -0.709651
lowerneck -9.56304 -7.34054 -19.1274
upperneck 4.96546 -9.07925 19.5526
head 4.9142 -4.02825 8.69593
rclavicle 4.52235e-014 -7.95139e-016
rhumerus -7.60478 7.10626 -90.6257
rradius 107.853
rwrist 29.9741
rhand 22.9963 1.89348
rfingers 7.12502
rthumb 47.3155 -20.6325
lclavicle 4.52235e-014 -7.95139e-016
lhumerus 1.74544 -24.3405 92.6786
lradius 92.9066
lwrist -16.4592
lhand 19.5073 36.6802
lfingers 7.12502
lthumb 44.0758 60.5347
rfemur -31.5763 1.30787 20.2375
rtibia 37.285
rfoot -22.0043 -9.55917
rtoes -24.0007
lfemur -35.0607 -7.53355 -12.0708
ltibia 38.6996
lfoot -19.7839 -2.44976
ltoes -15.7748
2726
root -0.231508 16.9048 -0.53953 17.2505 6.08627 -0.78541
lowerback 9.22355 0.814964 -1.1389
upperback -4.61479 0.849013 -1.0237
thorax -10.1312 0.446225 -0.607733
lowerneck -9.52959 -7.77372 -19.3803
upperneck 4.74917 -9.59898 19.3066
head 4.94579 -4.30055 8.58804
rclavicle -3.47873e-014 8.74653e-015
rhumerus -7.2164 7.25642 -90.5701
rradius 107.968
rwrist 30.0839
rhand 22.8703 1.85355
rfingers 7.12502
rthumb 47.199 -20.7245
lclavicle -3.47873e-014 8.74653e-015
lhumerus 1.8115 -23.7278 92.7244
lradius 92.8026
lwrist -16.6451
lhand 19.2767 36.4303
lfingers 7.12502
lthumb 43.8607 60.3649
rfemur -31.6269 1.55831 19.9275
rtibia 36.4065
rfoot -21.4048 -9.68836
rtoes -24.1603
lfemur -35.0632 -7.67357 -12.1832
ltibia 37.7489
lfoot -19.1679 -2.43541
ltoes -14.8297
